<mxfile host="app.diagrams.net" modified="2023-05-24T23:00:10.416Z" agent="Mozilla/5.0 (Windows NT 10.0; Win64; x64) AppleWebKit/537.36 (KHTML, like Gecko) Chrome/113.0.0.0 Safari/537.36 Edg/113.0.1774.50" etag="qfljViBsVnoxmU5jpNvf" version="21.3.2" type="device">
  <diagram id="R2lEEEUBdFMjLlhIrx00" name="Page-1">
    <mxGraphModel dx="474" dy="763" grid="1" gridSize="10" guides="1" tooltips="1" connect="1" arrows="1" fold="1" page="1" pageScale="1" pageWidth="850" pageHeight="1100" math="0" shadow="0" extFonts="Permanent Marker^https://fonts.googleapis.com/css?family=Permanent+Marker">
      <root>
        <mxCell id="0" />
        <mxCell id="1" parent="0" />
        <mxCell id="uP0GkM5LxL78hokmXEj7-1" value="Departamento" style="rounded=0;whiteSpace=wrap;html=1;" vertex="1" parent="1">
          <mxGeometry x="660" y="500" width="120" height="60" as="geometry" />
        </mxCell>
        <mxCell id="uP0GkM5LxL78hokmXEj7-2" value="Estudiante" style="rounded=0;whiteSpace=wrap;html=1;" vertex="1" parent="1">
          <mxGeometry x="120" y="290" width="120" height="60" as="geometry" />
        </mxCell>
        <mxCell id="uP0GkM5LxL78hokmXEj7-3" value="Curso" style="rounded=0;whiteSpace=wrap;html=1;" vertex="1" parent="1">
          <mxGeometry x="1130" y="290" width="120" height="60" as="geometry" />
        </mxCell>
        <mxCell id="uP0GkM5LxL78hokmXEj7-4" value="Estudiante&lt;br&gt;ID" style="ellipse;whiteSpace=wrap;html=1;fontStyle=4" vertex="1" parent="1">
          <mxGeometry x="10" y="360" width="80" height="40" as="geometry" />
        </mxCell>
        <mxCell id="uP0GkM5LxL78hokmXEj7-6" value="Nombre" style="ellipse;whiteSpace=wrap;html=1;fontStyle=0" vertex="1" parent="1">
          <mxGeometry x="90" y="420" width="80" height="40" as="geometry" />
        </mxCell>
        <mxCell id="uP0GkM5LxL78hokmXEj7-7" value="&lt;u&gt;Codigo&lt;br&gt;&amp;nbsp;(ID)&lt;/u&gt;" style="ellipse;whiteSpace=wrap;html=1;fontStyle=0" vertex="1" parent="1">
          <mxGeometry x="1320" y="340" width="80" height="40" as="geometry" />
        </mxCell>
        <mxCell id="uP0GkM5LxL78hokmXEj7-8" value="Nombre&lt;br&gt;Curso" style="ellipse;whiteSpace=wrap;html=1;fontStyle=0" vertex="1" parent="1">
          <mxGeometry x="1260" y="430" width="80" height="40" as="geometry" />
        </mxCell>
        <mxCell id="uP0GkM5LxL78hokmXEj7-9" value="Numero de&lt;br&gt;Creditos" style="ellipse;whiteSpace=wrap;html=1;fontStyle=0" vertex="1" parent="1">
          <mxGeometry x="1090" y="440" width="80" height="40" as="geometry" />
        </mxCell>
        <mxCell id="uP0GkM5LxL78hokmXEj7-11" value="&lt;u&gt;Departamento&lt;br&gt;&lt;/u&gt;ID" style="ellipse;whiteSpace=wrap;html=1;fontStyle=0" vertex="1" parent="1">
          <mxGeometry x="550" y="595" width="120" height="60" as="geometry" />
        </mxCell>
        <mxCell id="uP0GkM5LxL78hokmXEj7-12" value="Nombre de&lt;br&gt;Departamento" style="ellipse;whiteSpace=wrap;html=1;fontStyle=0" vertex="1" parent="1">
          <mxGeometry x="730" y="605" width="90" height="50" as="geometry" />
        </mxCell>
        <mxCell id="uP0GkM5LxL78hokmXEj7-13" value="Matriculan" style="rhombus;whiteSpace=wrap;html=1;" vertex="1" parent="1">
          <mxGeometry x="660" y="280" width="120" height="80" as="geometry" />
        </mxCell>
        <mxCell id="uP0GkM5LxL78hokmXEj7-14" value="" style="endArrow=none;html=1;rounded=0;exitX=1;exitY=0.5;exitDx=0;exitDy=0;entryX=0;entryY=0.5;entryDx=0;entryDy=0;" edge="1" parent="1" source="uP0GkM5LxL78hokmXEj7-2" target="uP0GkM5LxL78hokmXEj7-13">
          <mxGeometry width="50" height="50" relative="1" as="geometry">
            <mxPoint x="570" y="420" as="sourcePoint" />
            <mxPoint x="620" y="370" as="targetPoint" />
          </mxGeometry>
        </mxCell>
        <mxCell id="uP0GkM5LxL78hokmXEj7-15" value="" style="endArrow=none;html=1;rounded=0;exitX=1;exitY=0.5;exitDx=0;exitDy=0;entryX=0;entryY=0.5;entryDx=0;entryDy=0;" edge="1" parent="1" source="uP0GkM5LxL78hokmXEj7-13" target="uP0GkM5LxL78hokmXEj7-3">
          <mxGeometry width="50" height="50" relative="1" as="geometry">
            <mxPoint x="640" y="220" as="sourcePoint" />
            <mxPoint x="1060" y="220" as="targetPoint" />
          </mxGeometry>
        </mxCell>
        <mxCell id="uP0GkM5LxL78hokmXEj7-16" value="" style="endArrow=none;html=1;rounded=0;entryX=1;entryY=1;entryDx=0;entryDy=0;exitX=0.5;exitY=0;exitDx=0;exitDy=0;" edge="1" parent="1" source="uP0GkM5LxL78hokmXEj7-18" target="uP0GkM5LxL78hokmXEj7-2">
          <mxGeometry width="50" height="50" relative="1" as="geometry">
            <mxPoint x="570" y="420" as="sourcePoint" />
            <mxPoint x="620" y="370" as="targetPoint" />
          </mxGeometry>
        </mxCell>
        <mxCell id="uP0GkM5LxL78hokmXEj7-17" value="Direccion" style="ellipse;whiteSpace=wrap;html=1;fontStyle=0" vertex="1" parent="1">
          <mxGeometry x="190" y="420" width="80" height="40" as="geometry" />
        </mxCell>
        <mxCell id="uP0GkM5LxL78hokmXEj7-18" value="Telefono" style="ellipse;whiteSpace=wrap;html=1;fontStyle=0" vertex="1" parent="1">
          <mxGeometry x="260" y="380" width="80" height="40" as="geometry" />
        </mxCell>
        <mxCell id="uP0GkM5LxL78hokmXEj7-19" value="" style="endArrow=none;html=1;rounded=0;entryX=0.592;entryY=1.017;entryDx=0;entryDy=0;exitX=0.5;exitY=0;exitDx=0;exitDy=0;entryPerimeter=0;" edge="1" parent="1" source="uP0GkM5LxL78hokmXEj7-17" target="uP0GkM5LxL78hokmXEj7-2">
          <mxGeometry width="50" height="50" relative="1" as="geometry">
            <mxPoint x="250" y="390" as="sourcePoint" />
            <mxPoint x="190" y="360" as="targetPoint" />
          </mxGeometry>
        </mxCell>
        <mxCell id="uP0GkM5LxL78hokmXEj7-20" value="" style="endArrow=none;html=1;rounded=0;entryX=0.342;entryY=0.967;entryDx=0;entryDy=0;exitX=0.5;exitY=0;exitDx=0;exitDy=0;entryPerimeter=0;" edge="1" parent="1" source="uP0GkM5LxL78hokmXEj7-6" target="uP0GkM5LxL78hokmXEj7-2">
          <mxGeometry width="50" height="50" relative="1" as="geometry">
            <mxPoint x="199.5" y="430" as="sourcePoint" />
            <mxPoint x="160.5" y="361" as="targetPoint" />
          </mxGeometry>
        </mxCell>
        <mxCell id="uP0GkM5LxL78hokmXEj7-21" value="" style="endArrow=none;html=1;rounded=0;entryX=0.342;entryY=0.967;entryDx=0;entryDy=0;exitX=0.7;exitY=0.05;exitDx=0;exitDy=0;entryPerimeter=0;exitPerimeter=0;" edge="1" parent="1" source="uP0GkM5LxL78hokmXEj7-4">
          <mxGeometry width="50" height="50" relative="1" as="geometry">
            <mxPoint x="90" y="392" as="sourcePoint" />
            <mxPoint x="121" y="320" as="targetPoint" />
          </mxGeometry>
        </mxCell>
        <mxCell id="uP0GkM5LxL78hokmXEj7-22" value="" style="endArrow=none;html=1;rounded=0;entryX=0.592;entryY=1.017;entryDx=0;entryDy=0;exitX=0.4;exitY=0.025;exitDx=0;exitDy=0;entryPerimeter=0;exitPerimeter=0;" edge="1" parent="1" source="uP0GkM5LxL78hokmXEj7-7">
          <mxGeometry width="50" height="50" relative="1" as="geometry">
            <mxPoint x="1289" y="380" as="sourcePoint" />
            <mxPoint x="1250" y="311" as="targetPoint" />
          </mxGeometry>
        </mxCell>
        <mxCell id="uP0GkM5LxL78hokmXEj7-23" value="" style="endArrow=none;html=1;rounded=0;entryX=0.592;entryY=1.017;entryDx=0;entryDy=0;exitX=0.5;exitY=0;exitDx=0;exitDy=0;entryPerimeter=0;" edge="1" parent="1" source="uP0GkM5LxL78hokmXEj7-8">
          <mxGeometry width="50" height="50" relative="1" as="geometry">
            <mxPoint x="1239" y="420" as="sourcePoint" />
            <mxPoint x="1200" y="351" as="targetPoint" />
          </mxGeometry>
        </mxCell>
        <mxCell id="uP0GkM5LxL78hokmXEj7-24" value="" style="endArrow=none;html=1;rounded=0;entryX=0;entryY=1;entryDx=0;entryDy=0;exitX=0.5;exitY=0;exitDx=0;exitDy=0;" edge="1" parent="1" source="uP0GkM5LxL78hokmXEj7-9" target="uP0GkM5LxL78hokmXEj7-3">
          <mxGeometry width="50" height="50" relative="1" as="geometry">
            <mxPoint x="1170" y="460" as="sourcePoint" />
            <mxPoint x="1150" y="361" as="targetPoint" />
          </mxGeometry>
        </mxCell>
        <mxCell id="uP0GkM5LxL78hokmXEj7-25" value="&lt;font style=&quot;font-size: 24px;&quot;&gt;(1:n)&lt;/font&gt;" style="text;html=1;strokeColor=none;fillColor=none;align=center;verticalAlign=middle;whiteSpace=wrap;rounded=0;" vertex="1" parent="1">
          <mxGeometry x="260" y="270" width="60" height="30" as="geometry" />
        </mxCell>
        <mxCell id="uP0GkM5LxL78hokmXEj7-26" value="&lt;font style=&quot;font-size: 24px;&quot;&gt;(N:N)&lt;/font&gt;" style="text;html=1;strokeColor=none;fillColor=none;align=center;verticalAlign=middle;whiteSpace=wrap;rounded=0;" vertex="1" parent="1">
          <mxGeometry x="690" y="220" width="60" height="30" as="geometry" />
        </mxCell>
        <mxCell id="uP0GkM5LxL78hokmXEj7-27" value="&lt;font style=&quot;font-size: 24px;&quot;&gt;(1:n)&lt;/font&gt;" style="text;html=1;strokeColor=none;fillColor=none;align=center;verticalAlign=middle;whiteSpace=wrap;rounded=0;" vertex="1" parent="1">
          <mxGeometry x="1020" y="280" width="60" height="30" as="geometry" />
        </mxCell>
        <mxCell id="uP0GkM5LxL78hokmXEj7-28" value="" style="endArrow=none;html=1;rounded=0;entryX=0;entryY=0.5;entryDx=0;entryDy=0;exitX=1;exitY=0;exitDx=0;exitDy=0;" edge="1" parent="1" source="uP0GkM5LxL78hokmXEj7-29" target="uP0GkM5LxL78hokmXEj7-3">
          <mxGeometry width="50" height="50" relative="1" as="geometry">
            <mxPoint x="710" y="410" as="sourcePoint" />
            <mxPoint x="760" y="360" as="targetPoint" />
          </mxGeometry>
        </mxCell>
        <mxCell id="uP0GkM5LxL78hokmXEj7-30" value="" style="endArrow=none;html=1;rounded=0;entryX=0;entryY=0.5;entryDx=0;entryDy=0;exitX=1;exitY=0;exitDx=0;exitDy=0;" edge="1" parent="1" source="uP0GkM5LxL78hokmXEj7-1" target="uP0GkM5LxL78hokmXEj7-29">
          <mxGeometry width="50" height="50" relative="1" as="geometry">
            <mxPoint x="780" y="500" as="sourcePoint" />
            <mxPoint x="1130" y="320" as="targetPoint" />
          </mxGeometry>
        </mxCell>
        <mxCell id="uP0GkM5LxL78hokmXEj7-29" value="Ofrece" style="rhombus;whiteSpace=wrap;html=1;" vertex="1" parent="1">
          <mxGeometry x="880" y="410" width="80" height="80" as="geometry" />
        </mxCell>
        <mxCell id="uP0GkM5LxL78hokmXEj7-34" value="" style="endArrow=none;html=1;rounded=0;exitX=0.5;exitY=0;exitDx=0;exitDy=0;" edge="1" parent="1" source="uP0GkM5LxL78hokmXEj7-11">
          <mxGeometry width="50" height="50" relative="1" as="geometry">
            <mxPoint x="610" y="595" as="sourcePoint" />
            <mxPoint x="660" y="545" as="targetPoint" />
          </mxGeometry>
        </mxCell>
        <mxCell id="uP0GkM5LxL78hokmXEj7-35" value="" style="endArrow=none;html=1;rounded=0;entryX=0.75;entryY=1;entryDx=0;entryDy=0;exitX=0.5;exitY=0;exitDx=0;exitDy=0;" edge="1" parent="1" source="uP0GkM5LxL78hokmXEj7-12" target="uP0GkM5LxL78hokmXEj7-1">
          <mxGeometry width="50" height="50" relative="1" as="geometry">
            <mxPoint x="770" y="650" as="sourcePoint" />
            <mxPoint x="820" y="600" as="targetPoint" />
          </mxGeometry>
        </mxCell>
        <mxCell id="uP0GkM5LxL78hokmXEj7-36" value="&lt;font style=&quot;font-size: 24px;&quot;&gt;(1:N)&lt;/font&gt;" style="text;html=1;strokeColor=none;fillColor=none;align=center;verticalAlign=middle;whiteSpace=wrap;rounded=0;" vertex="1" parent="1">
          <mxGeometry x="890" y="380" width="60" height="25" as="geometry" />
        </mxCell>
        <mxCell id="uP0GkM5LxL78hokmXEj7-37" value="&lt;font style=&quot;font-size: 18px;&quot;&gt;(1:1)&lt;/font&gt;" style="text;html=1;strokeColor=none;fillColor=none;align=center;verticalAlign=middle;whiteSpace=wrap;rounded=0;" vertex="1" parent="1">
          <mxGeometry x="810" y="480" width="60" height="25" as="geometry" />
        </mxCell>
        <mxCell id="uP0GkM5LxL78hokmXEj7-38" value="&lt;font style=&quot;font-size: 18px;&quot;&gt;(1:N)&lt;/font&gt;" style="text;html=1;strokeColor=none;fillColor=none;align=center;verticalAlign=middle;whiteSpace=wrap;rounded=0;" vertex="1" parent="1">
          <mxGeometry x="1030" y="367.5" width="60" height="25" as="geometry" />
        </mxCell>
      </root>
    </mxGraphModel>
  </diagram>
</mxfile>
